<svg id="visual" viewBox="0 0 900 600" width="900" height="600" xmlns="http://www.w3.org/2000/svg" xmlns:xlink="http://www.w3.org/1999/xlink" version="1.1"><rect x="0" y="0" width="900" height="600" fill="#2E6695"></rect><path d="M0 305L37.5 303.3C75 301.7 150 298.3 225 304.5C300 310.7 375 326.3 450 344.8C525 363.3 600 384.7 675 388C750 391.3 825 376.7 862.5 369.3L900 362L900 601L862.5 601C825 601 750 601 675 601C600 601 525 601 450 601C375 601 300 601 225 601C150 601 75 601 37.5 601L0 601Z" fill="#fff" stroke-linecap="round" stroke-linejoin="miter"></path></svg>