<svg id="visual" viewBox="0 0 900 600" width="900" height="600" xmlns="http://www.w3.org/2000/svg" xmlns:xlink="http://www.w3.org/1999/xlink" version="1.1"><rect x="0" y="0" width="900" height="600" fill="#2E6695"></rect><path d="M0 313L37.5 307.7C75 302.3 150 291.7 225 306C300 320.3 375 359.7 450 380.3C525 401 600 403 675 387.7C750 372.3 825 339.7 862.5 323.3L900 307L900 601L862.5 601C825 601 750 601 675 601C600 601 525 601 450 601C375 601 300 601 225 601C150 601 75 601 37.5 601L0 601Z" fill="#fff" stroke-linecap="round" stroke-linejoin="miter"></path></svg>