<svg id="visual" viewBox="0 0 900 600" width="900" height="600" xmlns="http://www.w3.org/2000/svg" xmlns:xlink="http://www.w3.org/1999/xlink" version="1.1"><rect x="0" y="0" width="900" height="600" fill="#2E6695"></rect><path d="M0 374L21.5 365.7C43 357.3 86 340.7 128.8 332.5C171.7 324.3 214.3 324.7 257.2 338.3C300 352 343 379 385.8 394C428.7 409 471.3 412 514.2 413C557 414 600 413 642.8 408.7C685.7 404.3 728.3 396.7 771.2 377C814 357.3 857 325.7 878.5 309.8L900 294L900 601L878.5 601C857 601 814 601 771.2 601C728.3 601 685.7 601 642.8 601C600 601 557 601 514.2 601C471.3 601 428.7 601 385.8 601C343 601 300 601 257.2 601C214.3 601 171.7 601 128.8 601C86 601 43 601 21.5 601L0 601Z" fill="#fff" stroke-linecap="round" stroke-linejoin="miter"></path></svg>